PathFileType        4      (X/Y/Z)      Static.trc         
DataRate	CameraRate	NumFrames	NumMarkers	Units	OrigDataRate	OrigDataStartFrame	OrigNumFrames
100.0	100.0	6	33	mm	100.0	1	156
Frame#	Time	T2			T10			MANU			LASI			RASI			SACR			LTHI			LKAX			LKD1			LKD2			LKNE			LTIB			LANK			LMED			LHEE			LTOE			RTHI			RKAX			RKD1			RKD2			RKNE			RTIB			RANK			RMED			RHEE			RTOE			RHJC			LHJC			RKJC			LKJC			MASI			RAJC			LAJC			
		X1	Y1	Z1	X2	Y2	Z2	X3	Y3	Z3	X4	Y4	Z4	X5	Y5	Z5	X6	Y6	Z6	X7	Y7	Z7	X8	Y8	Z8	X9	Y9	Z9	X10	Y10	Z10	X11	Y11	Z11	X12	Y12	Z12	X13	Y13	Z13	X14	Y14	Z14	X15	Y15	Z15	X16	Y16	Z16	X17	Y17	Z17	X18	Y18	Z18	X19	Y19	Z19	X20	Y20	Z20	X21	Y21	Z21	X22	Y22	Z22	X23	Y23	Z23	X24	Y24	Z24	X25	Y25	Z25	X26	Y26	Z26	X27	Y27	Z27	X28	Y28	Z28	X29	Y29	Z29	X30	Y30	Z30	X31	Y31	Z31	X32	Y32	Z32	X33	Y33	Z33	
1	0.0	129.4666	1122.84121	-58.42665	104.99202	924.9633	-75.21472	242.39489	1050.43505	-46.14754	299.41066	737.0311	-148.85924	269.72381	740.53539	69.55256	162.79699	771.73985	-60.35242	305.12994	419.40318	-213.67008	313.73967	356.25893	-277.20965	406.27741	350.10117	-183.07404	309.52679	260.37279	-186.21598	312.97716	353.70049	-183.7508	202.85384	136.21861	-238.30328	156.53752	61.94859	-207.33234	157.38854	49.03083	-133.56513	95.07706	39.30873	-184.90185	268.75748	29.67458	-184.24578	299.06214	432.80441	113.12835	319.73272	362.04323	176.00336	408.76595	358.67375	68.18467	311.99332	266.44429	78.05243	312.46384	361.96712	78.00586	225.25823	144.72358	130.03159	174.19649	53.93647	102.72106	177.79669	57.11011	24.09774	118.57839	37.24327	79.91469	289.0543	29.71956	54.08237	215.0819	676.13056	32.70142	236.64134	673.58564	-125.91552	309.06117	361.93149	32.1319	312.60201	352.44176	-137.76955	284.56723	738.78324	-39.65334	172.40384	47.25027	64.25389	152.76078	47.47201	-171.33107	
2	0.01	129.50176	1122.82672	-58.46703	105.05313	924.95628	-75.30078	242.40668	1050.4298	-46.11892	299.41054	736.98877	-148.84308	269.68425	740.51273	69.53159	162.89811	771.67731	-60.38726	305.15411	419.37571	-213.67879	313.77164	356.22621	-277.21078	406.24018	350.03489	-183.03501	309.50258	260.31811	-186.19695	312.95725	353.65325	-183.74618	202.86788	136.20238	-238.30738	156.54879	61.94804	-207.37678	157.40041	49.03512	-133.5457	95.06209	39.32795	-184.95545	268.7243	29.62803	-184.22068	299.03709	432.79113	113.13359	319.72448	362.03271	175.99668	408.73104	358.63786	68.18891	312.01419	266.46604	78.06041	312.46803	361.94611	78.01548	225.24806	144.71109	130.05582	174.16392	53.91048	102.71883	177.79634	57.0983	24.07774	118.57946	37.20537	79.93151	289.04809	29.69984	54.08618	215.077	676.10764	32.68449	236.66537	673.54841	-125.90752	309.0706	361.90556	32.14113	312.5566	352.38746	-137.76535	284.54739	738.75075	-39.65574	172.38669	47.23156	64.24223	152.77388	47.47539	-171.34403	
3	0.02	129.52919	1122.81332	-58.49614	105.08983	924.95326	-75.37471	242.42716	1050.42658	-46.09687	299.41699	736.95285	-148.83305	269.64645	740.49179	69.50663	162.97321	771.62653	-60.41431	305.18001	419.3499	-213.68573	313.80265	356.19512	-277.2104	406.21529	349.97964	-183.00422	309.48233	260.26886	-186.17954	312.94446	353.61299	-183.74184	202.87945	136.18908	-238.31192	156.55635	61.9472	-207.41116	157.4126	49.04154	-133.53076	95.04599	39.34088	-184.9969	268.69363	29.58611	-184.19858	299.01175	432.7771	113.13406	319.71191	362.01999	175.98913	408.69905	358.60575	68.18259	312.03956	266.48813	78.06507	312.46999	361.92497	78.01967	225.23973	144.70138	130.07454	174.13599	53.88895	102.71624	177.78972	57.08625	24.06563	118.58198	37.17496	79.94317	289.04125	29.68189	54.08817	215.06819	676.08795	32.65972	236.68895	673.51781	-125.90875	309.07892	361.88048	32.14486	312.52229	352.34275	-137.76132	284.53172	738.72232	-39.66321	172.36872	47.21499	64.23458	152.78495	47.47946	-171.35412	
4	0.03	129.54496	1122.80292	-58.50844	105.0867	924.95668	-75.42966	242.46127	1050.42509	-46.08342	299.4334	736.92661	-148.83109	269.60959	740.47141	69.4759	163.00869	771.59486	-60.42881	305.20821	419.32691	-213.68841	313.8326	356.16714	-277.20722	406.20767	349.94019	-182.98335	309.46881	260.22807	-186.1632	312.94196	353.58299	-183.73682	202.88667	136.18031	-238.3164	156.55715	61.94594	-207.42906	157.42394	49.04973	-133.52178	95.02756	39.34607	-185.01839	268.66671	29.55237	-184.18069	298.98539	432.76179	113.12827	319.69212	362.00422	175.98211	408.67116	358.57924	68.16249	312.07017	266.50976	78.06572	312.46778	361.90385	78.01704	225.23243	144.69461	130.08579	174.11552	53.87547	102.71368	177.77401	57.07469	24.06548	118.58414	37.15684	79.94684	289.03326	29.66813	54.08935	215.05099	676.07266	32.62226	236.71066	673.49823	-125.92411	309.08474	361.85684	32.14164	312.50383	352.31179	-137.75648	284.52149	738.69901	-39.67759	172.34999	47.20277	64.23328	152.79168	47.48386	-171.35883	
5	0.04	129.5498	1122.79808	-58.50543	105.04249	924.96671	-75.46641	242.50777	1050.42244	-46.07536	299.45794	736.90946	-148.83405	269.56885	740.44684	69.44013	163.00621	771.58304	-60.43056	305.23777	419.30779	-213.6847	313.86091	356.14253	-277.20063	406.21302	349.91389	-182.96675	309.46288	260.19522	-186.14623	312.94717	353.56126	-183.72924	202.88811	136.17549	-238.31872	156.55008	61.94467	-207.42923	157.43199	49.05762	-133.5168	95.00572	39.34709	-185.01894	268.64221	29.52769	-184.16576	298.95682	432.74485	113.11925	319.66521	361.98623	175.97917	408.648	358.55777	68.13649	312.10144	266.52827	78.06481	312.46127	361.88353	78.01134	225.22354	144.68877	130.0921	174.10149	53.87087	102.71285	177.75072	57.06507	24.07666	118.57963	37.15102	79.94383	289.02397	29.66123	54.09344	215.02003	676.06	32.57095	236.72733	673.49094	-125.95315	309.08783	361.83544	32.13523	312.49768	352.29149	-137.74896	284.51339	738.67815	-39.69696	172.33074	47.19605	64.23876	152.79236	47.4878	-171.35656	
6	0.05	129.54969	1122.80021	-58.49454	104.97361	924.98101	-75.49272	242.56172	1050.41541	-46.06805	299.48589	736.89829	-148.8372	269.52009	740.41397	69.40175	162.98114	771.58481	-60.42469	305.26777	419.2929	-213.67527	313.88716	356.12055	-277.19184	406.22461	349.89511	-182.94829	309.46503	260.16785	-186.12943	312.95601	353.54314	-183.71887	202.88449	136.17258	-238.31737	156.5382	61.94358	-207.41592	157.43472	49.06374	-133.51326	94.98205	39.34874	-185.00509	268.61895	29.51098	-184.15265	298.92791	432.72713	113.1117	319.63617	361.968	175.98241	408.63156	358.5397	68.11747	312.12702	266.54036	78.06547	312.45367	361.86547	78.00792	225.21248	144.68193	130.09719	174.09087	53.87242	102.71511	177.72566	57.05836	24.09458	118.56367	37.15274	79.93743	289.01427	29.66222	54.1028	214.9743	676.04667	32.50884	236.73753	673.49334	-125.99131	309.09045	361.81745	32.13106	312.49796	352.27528	-137.73863	284.50299	738.65613	-39.71773	172.31235	47.19388	64.24924	152.78764	47.49083	-171.34819	
